<svg xmlns="http://www.w3.org/2000/svg" width="4096" height="4096" viewBox="0 0 4096 4096">
  <defs>
    <style>
      .cls-1 {
        fill-rule: evenodd;
      }
    </style>
  </defs>
  <path id="Color_Fill_1" data-name="Color Fill 1" class="cls-1" d="M2076,604c214.59-3.846,363.73,73.7,488,162,253.02,179.786,410.19,464.01,510,797,23.15,77.25,34.59,156.72,51,242,11.5,59.78,11.49,125.69,22,190q1.5,41.49,3,83c5.07,32.13,5.2,100.93,0,133q-0.495,25.5-1,51-4.5,51.99-9,104c-8.87,52.35-8.24,101.61-19,151-15.86,72.75-27.18,145.04-48,213-83.36,272.11-199.68,501.71-377,679-103.11,103.09-222.62,192.44-379,242-39.9,12.65-81.96,19.48-126,28l-74,6c-53.04,8.67-141.06-6.67-181-17-166.31-43-258.54-98.29-374-189-211.64-166.26-367.15-453.08-452-747-24.69-85.53-38.22-175.68-57-269-9.82-48.8-6.74-97.34-15-149-6.3-39.4.75-82.23-6-125-5.77-36.58-3.66-114.11,2-149q1.995-40.5,4-81,10.5-85.485,21-171c95.56-490.83,289.08-869.688,658-1086,66.62-39.06,143.83-62.419,228-84l89-12Zm-10,220-31,2-83,13c-65.79,18.021-122.92,39.524-178,67-47.39,23.636-90.11,57.944-131,89l-43,40c-53.55,41.52-95.98,100.83-136,156-117.94,162.61-194.3,354.21-245,586q-36.03,164.685-36,364c0,42.56-1.85,86.38,4,125q1.005,18,2,36,12,17.505,24,35c128.6,184.96,302.21,354.38,522,448,19.93,8.49,38.74,20.74,62,28,133.93,41.81,230.16-8.37,352-27,39.84-6.09,75.8,4.94,102,15,10.32,3.96,31.27,14.53,44,6,13.8-9.24,32.18-47.45,42-63,33.82-53.54,71.34-117.05,89-184-91.63,31.7-126.01-70.86-145-133q-6-25.995-12-52-34.995-46.995-70-94c-6.09-8.27-16.55-15.47-19-27,12.21,4.21,66.23,71.04,80,85q9,10.995,18,22,12,1.005,24,2,21,5.505,42,11c44.63,17.3,73.74,48.3,88,96q4.005,24.99,8,50c6.09-37.89,20.32-76.8,29-116,10.55-47.64,10.94-97.57,18-150h-1c-78.65,42.35-124.78-33.38-150-90q-7.995-19.5-16-39-39.495-33.99-79-68c-6.91-5.45-17.41-10.46-21-19,1.33,0.67,2.67,1.33,4,2q51.99,34.995,104,70c9.89-4.75,22.02-3.96,35-6,64.41-10.13,110.03,24.76,124,69h1c0.38-51.2-4.27-102.73-13-147-2.83-14.36-1.12-36.88-9-47v2c-9.62,11.4-16.85,26.27-29,35-46.24,33.2-98.88-7.17-127-34q-10.5-11.505-21-23c-21-9.28-97.68-12.01-109-24q56.49,4.005,113,8c15.46-19.74,78.4-62.84,119-49,21.93,7.48,29.63,25.58,45,39-6.72-48.05-28.06-94.72-44-136-4.66-12.07-9.2-34.84-19-42-7.71,44.9-46.53,92.33-108,77-17.13-4.27-35.74-11.65-50-20q-7.5-4.995-15-10l-109,18v-3q54.495-16.005,109-32,4.005-7.5,8-15c18.16-24.45,66.12-88.89,116-74,12.01,3.58,20.3,11.37,30,17-15.7-33.11-51.01-97.22-76-120-2.33.33-4.67,0.67-7,1-9.49,48.64-58.98,83.12-116,61q-22.5-13.005-45-26l-17-14c-18.11-6.1-100.08,7.26-107-3,24.03,0.05,96.9-6.82,112-17,14.98-32.13,61.6-59.19,100-70v-1l-3-3q-28.5-27.495-57-55c-35.99-15.14-60.01,24.69-103-5-26.32-18.18-43.73-51.74-60-80-6.62-11.5-9-28.92-19-37-14.03-11.34-82.01-56.14-86-68,29.61,5.47,66.39,48.84,94,57,11.74,3.47,52.01-12.34,77-8,57.48,9.98,77.12,52.27,88,109,14.94,5.74,26.12,17.92,38,27-20.55-32.7-38.3-87.04-29-146q2.505-31.5,5-63-16.995-71.49-34-143h1c0.67,0.33,1.33.67,2,1l42,141q14.505,13.995,29,28c20.29,25.11,41.26,51.6,52,86,7.71,24.7,9.64,62.27,3,90q-6.495,21-13,42c4.59,25.33,34.04,52.7,52,66-21.83-54.97-2.52-129.84,16-175q8.505-20.505,17-41,4.995-74.985,10-150h1v159c5.55,18.79,18.15,39.18,25,59,22.64,65.51,22.05,162.21-27,199,0.33,1,.67,2,1,3,20.87,23.43,38.69,53.64,55,81q7.995,14.505,16,29c-13.14-64.41,17.9-127.26,41-166q13.005-20.505,26-41,10.995-58.995,22-118c3.01-13.72,1.36-35.15,9-45h1q-10.5,86.49-21,173,6.495,22.005,13,44c13.23,48.72,20.07,125.41,1,172-12.42,30.35-32.47,43.73-53,65,13.21,30.44,25.39,62.75,34,97h1c0.07-62.48,50.98-122.03,85-153q13.995-11.505,28-23,34.995-79.995,70-160h1q-30,85.485-60,171,1.005,9,2,18,0.495,43.995,1,88c-14.94,91.23-18.91,145.86-101,171q6,40.995,12,82,2.505,30.99,5,62v-2c26.91-42.22,36.31-66.18,86-87l51-15q7.995-1.005,16-2,43.5-43.995,87-88c6.71-6.2,10.45-15.63,20-19v1q-49.5,60.99-99,122Q2683,2106,2676,2138c-21.92,74.32-47.73,156.58-148,138-0.48,58.44-8.47,131.81-24,180,1-.67,2-1.33,3-2,15.88-33.24,80.61-51.56,134-40l35,9q66.99-32.49,134-65c-0.33,1.33-.67,2.67-1,4q-64.5,41.49-129,83Q2673,2462,2666,2479c-19.53,38.23-42.85,82.16-76,107-35.38,26.52-92.29,18.97-118-12-0.67.33-1.33,0.67-2,1-5.18,37.04-28.62,75.79-44,106q-13.5,34.995-27,70-27.99,51.495-56,103c-15.39,28.79-36.36,53.58-56,78-21.59,26.85-35.87,70.65-46,107-22.77,81.72-37,213.22,13,273,25.35,30.31,93.02,52.42,113,1,2.72-6.99,7.63-17.97,5-30-6.08-27.77-33.53-41.91-51-59-0.96-13.12-4.95-26.2-2-37,40.46-.89,62.75,5.34,85,21-0.78-36.72,8.62-66.23,16-95q8.505-34.995,17-70c26.52-67.47,82.79-147.1,139-185,46.93-31.65,109.58-62.57,168-17,27.68,21.59,35.78,54.1,43,97q-1.5,30.99-3,62v-2q13.5-24.495,27-49c26.75-45.8,47.26-96.06,68-148,43.56-109.06,71.63-227.42,98-357,10.27-50.47,8.23-101.27,17-155,5.71-34.95-1.07-73.07,5-111v-67q-1.5-39.495-3-79c-9.11-55.09-5.29-107.56-15-159-12.93-68.49-22.13-135.51-40-199-53.01-188.38-126.08-348.19-226-488-43.53-60.91-92.08-120.48-150-167C2433.14,913.074,2305.76,823.673,2066,824ZM1194,2348q5.505,42.495,11,85c9.98,49.68,16.24,97.6,28,143q10.5,41.49,21,83,22.005,18.495,44,37c-6.07-57.62,2.76-103.95,12-152-11.12-9.82-17.63-25.41-26-38-21.64-32.58-41.83-67.46-62-102Zm150,242c-8.67,42.13-1.94,125.96,17,154q28.995,19.5,58,39c-5.3-17.46-9.5-119.8-11-121Q1376.005,2626,1344,2590Zm124,125c-1.43,26.51,6.68,91.6,19,108q31.5,16.005,63,32c-4.08-27.35-5.03-53.43-4-84C1517.67,2755.98,1491.98,2734.82,1468,2715Zm-141,64c-3.02,11.87-7.74,35.77-1,49l25,25c36.1,44.81,82.94,76.99,134,107,38.84,22.83,75.1,46.92,118,66,33.55,14.93,68.88,15.52,109,24,43.15,9.12,93.25,16.85,147,17,8.72,0.02,14.82,3.72,21,3,48.07-5.62,95.58-20.08,135-37a679.7,679.7,0,0,0,146-86l57-51c-0.67-.33-1.33-0.67-2-1-32.88-20.09-98.63,21.58-120,33-69.89,37.33-141.78,55.17-236,71-19.26,3.24-48.69,7.74-71,4-63.61-10.67-114.23-10.5-167-30-74.97-27.7-138.71-66.63-197-111l-66-60,9,12C1354.36,2803.6,1344.08,2785.24,1327,2779Zm265,18c4.72,27.95,7.92,55.86,11,81q37.5,13.005,75,26c-11.37-23.58-26.07-50.28-28-82Q1621.005,2809.505,1592,2797Zm595,25c-20.12-.5-65.51,2.34-76,11,8.68,13.13,15.36,26.24,20,44q24.495-7.005,49-14C2181.89,2849.15,2186.84,2839.65,2187,2822Zm28,1c0.4,16.2-1.77,28.53-6,40h2q13.995,4.995,28,10,15-16.995,30-34h-2C2256.56,2828.75,2234.09,2823.91,2215,2823Zm-136,18-72,21q22.995,24.99,46,50c11.76-3.45,48.62-14.88,51-27C2099.29,2869.76,2093.41,2846.1,2079,2841Zm-365,2c7.58,29.11,30.18,51.78,37,79,16.02,2.43,60.02,15.64,75,10l-3-3c-9.2-23.26-24.49-43.88-32-71C1767.9,2857.83,1735.34,2851.21,1714,2843Zm138,25q22.995,34.5,46,69c23.83,0.43,84.53.29,99-9-22.56-10.94-33.65-38.41-51-55C1914.56,2874.08,1879.49,2875.7,1852,2868Zm805,52c-20.05,9.24-37.55,9.9-53,22-60.6,47.46-89.44,192.02-13,245,7.98,5.53,33.79,17.52,48,11,13.17-6.04,79.41-94.9,89-112-46,3.8-73.06-20.55-92-47q5.505-17.505,11-35c12.16,9.23,28.64,19.58,46,10C2708.17,2977.59,2709.67,2919.81,2657,2920Zm-559,195q-24.99,13.5-50,27c-69.63,40.8-158.36,72.92-250,89-46.22,8.11-93.95,21.91-141,15-22.54-3.31-39.27,1.64-46,15,18.76,26.5,47.57,45.14,74,64,100.02,71.37,183.57,106.59,328,136,58.52,11.91,194.69,3.24,236-16-53.69-12.18-101.4-107.02-120-158-5.91-16.2-2.22-31.14-6-50-3-14.97-9.83-31.38-13-44q1.005-8.505,2-17C2112.54,3154.28,2108.99,3126.18,2098,3115Z"/>
</svg>
